<svg width="271" height="213" viewBox="0 0 271 213" fill="none" xmlns="http://www.w3.org/2000/svg">
<g style="mix-blend-mode:hard-light" filter="url(#filter0_d_1_4)">
<path d="M77.4609 7.66015C87.2266 8.24609 95.4297 8.73437 102.07 9.125C108.906 9.32031 114.57 9.51562 119.062 9.71093C124.141 9.90625 128.437 9.90625 131.953 9.71093C135.469 9.51562 140.254 9.02734 146.309 8.24609C151.387 7.66015 158.125 6.78125 166.523 5.60937C175.117 4.24218 185.762 2.48437 198.457 0.335935C193.965 4.82812 190.449 8.92968 187.91 12.6406C185.566 16.1562 183.711 19.1836 182.344 21.7227C180.781 24.8477 179.707 27.4844 179.121 29.6328C178.73 31.5859 179.121 36.4687 180.293 44.2812C181.465 52.0937 183.125 61.3711 185.273 72.1133C187.422 82.6601 189.766 93.9883 192.305 106.098C194.844 118.012 197.383 129.242 199.922 139.789C202.461 150.141 204.707 159.027 206.66 166.449C208.809 173.676 210.371 177.973 211.348 179.34C214.277 183.441 216.133 186.176 216.914 187.543C217.695 188.715 219.062 189.789 221.016 190.766C221.797 191.156 223.066 191.742 224.824 192.523C226.387 193.305 228.437 194.281 230.977 195.453C233.711 196.625 237.129 197.992 241.23 199.555C233.613 199.945 227.07 200.238 221.602 200.434C216.133 200.434 211.641 200.531 208.125 200.727C204.023 200.922 200.508 201.117 197.578 201.312C194.648 201.312 191.133 201.508 187.031 201.898C183.516 202.289 178.926 202.68 173.262 203.07C167.793 203.461 161.348 203.852 153.926 204.242C157.832 201.508 160.957 199.066 163.301 196.918C165.84 194.574 167.793 192.621 169.16 191.059C170.723 189.105 171.797 187.348 172.383 185.785C172.773 184.027 173.066 181.391 173.262 177.875C173.457 174.75 173.457 170.648 173.262 165.57C173.066 160.297 172.578 153.461 171.797 145.062L94.7461 152.973C92.793 156.293 91.3281 159.223 90.3516 161.762C89.375 164.105 88.6914 166.156 88.3008 167.914C87.7148 170.062 87.5195 171.82 87.7148 173.187C88.1055 174.75 88.7891 176.605 89.7656 178.754C90.7422 180.707 92.1094 183.051 93.8672 185.785C95.8203 188.324 98.6523 191.352 102.363 194.867C97.4805 194.672 92.5 194.574 87.4219 194.574C82.3437 194.574 77.6562 194.672 73.3594 194.867C68.2812 195.062 63.3008 195.258 58.418 195.453C53.5352 195.648 47.9687 195.941 41.7187 196.332C36.4453 196.723 30.293 197.211 23.2617 197.797C16.0352 198.187 8.32031 198.773 0.117189 199.555C5.19531 197.211 9.49219 194.867 13.0078 192.523C16.5234 189.984 19.4531 187.641 21.7969 185.492C24.5313 183.148 26.875 180.902 28.8281 178.754C30.1953 176.801 32.9297 172.309 37.0312 165.277C41.1328 158.051 45.7227 149.555 50.8008 139.789C56.0742 130.023 61.543 119.574 67.207 108.441C73.0664 97.3086 78.3398 86.8594 83.0273 77.0937C87.7148 67.1328 91.5234 58.5391 94.4531 51.3125C97.3828 44.0859 98.8477 39.3984 98.8477 37.25C98.457 34.7109 97.4805 31.8789 95.918 28.7539C94.5508 26.0195 92.4023 22.8945 89.4727 19.3789C86.7383 15.8633 82.7344 11.957 77.4609 7.66015ZM168.281 123.383C167.109 116.547 166.035 110.687 165.059 105.805C164.082 100.727 163.301 96.5273 162.715 93.207C161.934 89.3008 161.348 85.8828 160.957 82.9531C160.371 80.2187 159.687 76.7031 158.906 72.4062C158.125 68.6953 157.148 64.1055 155.977 58.6367C155 52.9727 153.73 46.2344 152.168 38.4219C141.035 60.6875 132.344 77.9726 126.094 90.2773C120.039 102.387 115.645 111.273 112.91 116.937C109.59 123.578 107.734 127.484 107.344 128.656L168.281 123.383Z" fill="white"/>
</g>
<defs>
<filter id="filter0_d_1_4" x="0.117188" y="0.335934" width="270.113" height="211.906" filterUnits="userSpaceOnUse" color-interpolation-filters="sRGB">
<feFlood flood-opacity="0" result="BackgroundImageFix"/>
<feColorMatrix in="SourceAlpha" type="matrix" values="0 0 0 0 0 0 0 0 0 0 0 0 0 0 0 0 0 0 127 0" result="hardAlpha"/>
<feOffset dx="25" dy="4"/>
<feGaussianBlur stdDeviation="2"/>
<feComposite in2="hardAlpha" operator="out"/>
<feColorMatrix type="matrix" values="0 0 0 0 0 0 0 0 0 0 0 0 0 0 0 0 0 0 1 0"/>
<feBlend mode="normal" in2="BackgroundImageFix" result="effect1_dropShadow_1_4"/>
<feBlend mode="normal" in="SourceGraphic" in2="effect1_dropShadow_1_4" result="shape"/>
</filter>
</defs>
</svg>
