<svg width="284" height="222" viewBox="0 0 284 222" fill="none" xmlns="http://www.w3.org/2000/svg">
<g style="mix-blend-mode:hard-light" filter="url(#filter0_d_1_4)">
<path d="M12.5352 0.9414C18.7852 1.13671 24.2539 1.23437 28.9414 1.23437C33.6289 1.03906 37.4375 0.9414 40.3672 0.9414H48.8633C51.0117 0.746088 53.6484 0.648431 56.7734 0.648431C59.5078 0.648431 62.8281 0.648431 66.7344 0.648431C70.6406 0.648431 75.1328 0.746088 80.2109 0.9414C81.7734 6.41015 83.5312 11.7812 85.4844 17.0547C87.6328 22.1328 89.4883 26.7226 91.0508 30.8242C93.0039 35.707 94.957 40.2969 96.9102 44.5937C98.8633 48.8906 101.207 54.0664 103.941 60.1211C106.285 65.1992 109.117 71.4492 112.437 78.8711C115.758 86.0976 119.664 94.3984 124.156 103.773C126.305 97.7187 128.258 92.1523 130.016 87.0742C131.969 81.9961 133.629 77.6016 134.996 73.8906C136.559 69.5937 137.828 65.6875 138.805 62.1719C139.781 58.6562 140.855 54.3594 142.027 49.2812C143.004 44.9844 144.078 39.8086 145.25 33.7539C146.617 27.6992 147.984 20.668 149.352 12.6601C155.016 12.6601 160.094 12.6601 164.586 12.6601C169.078 12.6601 172.984 12.5625 176.305 12.3672C180.016 12.3672 183.336 12.2695 186.266 12.0742C189.391 12.0742 193.59 11.8789 198.863 11.4883C203.355 11.0976 209.312 10.8047 216.734 10.6094C224.352 10.2187 233.727 9.73046 244.859 9.14452C240.758 12.0742 237.437 15.0039 234.898 17.9336C232.555 20.668 230.699 23.1094 229.332 25.2578C227.77 27.7969 226.793 30.2383 226.402 32.582C226.012 34.5351 225.621 39.0273 225.23 46.0586C225.035 53.0898 224.742 61.4883 224.352 71.2539C224.156 80.8242 223.961 91.0781 223.766 102.016C223.766 112.953 223.863 123.305 224.059 133.07C224.254 142.836 224.547 151.332 224.937 158.559C225.523 165.59 226.305 170.082 227.281 172.035C228.648 174.379 230.504 177.113 232.848 180.238C234.996 182.973 237.73 186.098 241.051 189.613C244.566 193.129 249.156 197.035 254.82 201.332C245.836 201.723 238.316 202.016 232.262 202.211C226.402 202.406 221.52 202.602 217.613 202.797C213.121 202.992 209.508 203.09 206.773 203.09C203.844 203.09 199.84 203.187 194.762 203.383C190.27 203.578 184.312 203.871 176.891 204.262C169.469 204.457 159.898 204.848 148.18 205.434C150.914 202.309 153.453 199.184 155.797 196.059C158.141 192.934 160.094 190.102 161.656 187.562C163.609 184.633 165.27 181.801 166.637 179.066C168.004 175.355 169.078 168.617 169.859 158.852C170.641 150.453 171.227 138.441 171.617 122.816C172.008 106.996 172.008 85.8047 171.617 59.2422C167.906 65.2969 164.586 71.3516 161.656 77.4062C158.922 83.2656 156.48 88.6367 154.332 93.5195C151.988 99.1836 149.84 104.652 147.887 109.926C145.934 115.395 143.883 121.449 141.734 128.09C139.781 133.754 137.437 140.492 134.703 148.305C132.164 156.117 129.234 164.711 125.914 174.086L114.781 174.672C113.219 166.859 111.656 159.828 110.094 153.578C108.531 147.133 106.969 141.664 105.406 137.172C103.648 131.898 101.891 127.211 100.133 123.109C98.1797 119.008 96.0312 114.418 93.6875 109.34C91.5391 105.043 88.9023 99.9648 85.7773 94.1055C82.8477 88.2461 79.4297 81.7031 75.5234 74.4766C73.5703 94.3984 72.3984 110.609 72.0078 123.109C71.6172 135.414 71.6172 144.984 72.0078 151.82C72.3984 160.023 72.9844 165.98 73.7656 169.691C74.9375 173.012 76.793 176.723 79.332 180.824C81.4805 184.34 84.4102 188.539 88.1211 193.422C92.0273 198.109 97.0078 203.383 103.062 209.242C98.7656 209.242 94.2734 209.242 89.5859 209.242C84.8984 209.242 80.6016 209.34 76.6953 209.535C72.0078 209.73 67.418 209.828 62.9258 209.828C58.2383 210.023 52.7695 210.316 46.5195 210.707C41.0508 211.098 34.5078 211.488 26.8906 211.879C19.2734 212.27 10.4844 212.953 0.523438 213.93C4.82031 211.195 8.33594 208.559 11.0703 206.02C13.8047 203.285 15.9531 200.844 17.5156 198.695C19.4687 196.156 20.9336 193.617 21.9102 191.078C22.4961 189.516 22.9844 186.098 23.375 180.824C23.9609 175.551 24.4492 169.105 24.8398 161.488C25.4258 153.871 25.8164 145.375 26.0117 136C26.4023 126.625 26.6953 117.152 26.8906 107.582C27.2812 97.8164 27.5742 88.3437 27.7695 79.1641C27.9648 69.7891 28.0625 61.3906 28.0625 53.9687C28.2578 46.3516 28.3555 40.0039 28.3555 34.9258C28.3555 29.8476 28.3555 26.625 28.3555 25.2578C27.7695 22.3281 26.8906 19.3984 25.7187 16.4687C24.7422 13.9297 23.1797 11.293 21.0312 8.55859C18.8828 5.82421 16.0508 3.28515 12.5352 0.9414Z" fill="white"/>
</g>
<defs>
<filter id="filter0_d_1_4" x="0.523438" y="0.648432" width="283.297" height="221.281" filterUnits="userSpaceOnUse" color-interpolation-filters="sRGB">
<feFlood flood-opacity="0" result="BackgroundImageFix"/>
<feColorMatrix in="SourceAlpha" type="matrix" values="0 0 0 0 0 0 0 0 0 0 0 0 0 0 0 0 0 0 127 0" result="hardAlpha"/>
<feOffset dx="25" dy="4"/>
<feGaussianBlur stdDeviation="2"/>
<feComposite in2="hardAlpha" operator="out"/>
<feColorMatrix type="matrix" values="0 0 0 0 0 0 0 0 0 0 0 0 0 0 0 0 0 0 1 0"/>
<feBlend mode="normal" in2="BackgroundImageFix" result="effect1_dropShadow_1_4"/>
<feBlend mode="normal" in="SourceGraphic" in2="effect1_dropShadow_1_4" result="shape"/>
</filter>
</defs>
</svg>
