<svg width="232" height="227" viewBox="0 0 232 227" fill="none" xmlns="http://www.w3.org/2000/svg">
<g style="mix-blend-mode:hard-light" filter="url(#filter0_d_1_4)">
<path d="M202.844 0.546869C200.109 6.79687 197.668 12.2656 195.52 16.9531C193.371 21.6406 191.516 25.6445 189.953 28.9648C188.195 32.6758 186.73 35.9961 185.559 38.9258C184.582 41.0742 183.312 44.0039 181.75 47.7148C180.187 51.0351 178.234 55.4297 175.891 60.8984C173.742 66.1719 170.91 73.0078 167.395 81.4062C165.637 74.1797 163.488 67.832 160.949 62.3633C158.41 56.8945 155.676 52.1094 152.746 48.0078C149.816 43.9062 146.691 40.5859 143.371 38.0469C140.246 35.3125 137.121 33.0664 133.996 31.3086C126.77 27.4023 119.152 25.2539 111.145 24.8633C100.598 25.4492 92.2969 27.207 86.2422 30.1367C80.3828 32.8711 76.0859 36.0937 73.3516 39.8047C70.6172 43.3203 69.1523 47.0312 68.957 50.9375C68.7617 54.6484 69.25 57.7734 70.4219 60.3125C71.3984 62.6562 74.8164 65.3906 80.6758 68.5156C86.7305 71.6406 93.957 75.2539 102.355 79.3555C110.949 83.2617 120.129 87.7539 129.895 92.832C139.66 97.7148 148.645 103.184 156.848 109.238C165.246 115.098 172.277 121.543 177.941 128.574C183.801 135.41 187.023 142.734 187.609 150.547C188.195 160.508 188.098 169.492 187.316 177.5C186.535 185.508 183.801 192.344 179.113 198.008C174.426 203.672 167.102 208.164 157.141 211.484C147.375 214.805 133.801 216.855 116.418 217.637C98.4492 218.418 83.7031 217.441 72.1797 214.707C60.6562 211.973 51.2812 208.262 44.0547 203.574C37.0234 198.887 31.75 193.711 28.2344 188.047C24.9141 182.383 22.4727 177.012 20.9102 171.934C19.3477 166.66 18.2734 162.168 17.6875 158.457C17.1016 154.551 16.125 152.207 14.7578 151.426C13.1953 150.449 11.6328 149.57 10.0703 148.789C8.70313 148.008 7.23828 147.324 5.67578 146.738C4.11328 145.957 2.55078 145.273 0.988282 144.687L86.2422 130.918C81.3594 134.824 77.5508 138.437 74.8164 141.758C72.2773 145.078 70.3242 148.008 68.957 150.547C67.3945 153.477 66.3203 156.211 65.7344 158.75C65.3437 161.484 66.2227 164.902 68.3711 169.004C70.5195 173.105 73.4492 177.109 77.1602 181.016C81.0664 184.727 85.5586 187.852 90.6367 190.391C95.7148 192.93 100.988 194.004 106.457 193.613C113.293 193.027 118.859 191.367 123.156 188.633C127.453 185.703 130.676 182.09 132.824 177.793C135.168 173.496 136.535 168.809 136.926 163.73C137.316 158.652 136.828 153.672 135.461 148.789C134.289 143.711 132.336 139.023 129.602 134.727C126.867 130.234 123.645 126.523 119.934 123.594C116.613 121.25 111.437 119.004 104.406 116.855C97.5703 114.707 89.8555 112.363 81.2617 109.824C72.8633 107.285 64.1719 104.355 55.1875 101.035C46.3984 97.7148 38.3906 93.6133 31.1641 88.7305C24.1328 83.8476 18.4687 78.0859 14.1719 71.4453C10.0703 64.8047 8.50781 56.7969 9.48438 47.4219C10.2656 39.4141 12.8047 32.7734 17.1016 27.5C21.5937 22.0312 27.1602 17.7344 33.8008 14.6094C40.6367 11.2891 48.1562 8.84765 56.3594 7.28515C64.7578 5.72265 73.2539 4.84374 81.8477 4.64843C90.6367 4.25781 99.2305 4.35546 107.629 4.9414C116.223 5.52734 123.937 6.21093 130.773 6.99218C137.609 7.77343 143.371 8.55468 148.059 9.33593C152.941 9.92187 155.969 10.3125 157.141 10.5078C162.219 10.8984 167.297 10.8008 172.375 10.2148C176.867 9.82421 181.75 8.94531 187.023 7.57812C192.492 6.01562 197.766 3.67187 202.844 0.546869Z" fill="white"/>
</g>
<defs>
<filter id="filter0_d_1_4" x="0.988281" y="0.546869" width="230.855" height="226.262" filterUnits="userSpaceOnUse" color-interpolation-filters="sRGB">
<feFlood flood-opacity="0" result="BackgroundImageFix"/>
<feColorMatrix in="SourceAlpha" type="matrix" values="0 0 0 0 0 0 0 0 0 0 0 0 0 0 0 0 0 0 127 0" result="hardAlpha"/>
<feOffset dx="25" dy="4"/>
<feGaussianBlur stdDeviation="2"/>
<feComposite in2="hardAlpha" operator="out"/>
<feColorMatrix type="matrix" values="0 0 0 0 0 0 0 0 0 0 0 0 0 0 0 0 0 0 1 0"/>
<feBlend mode="normal" in2="BackgroundImageFix" result="effect1_dropShadow_1_4"/>
<feBlend mode="normal" in="SourceGraphic" in2="effect1_dropShadow_1_4" result="shape"/>
</filter>
</defs>
</svg>
