<svg width="287" height="210" viewBox="0 0 287 210" fill="none" xmlns="http://www.w3.org/2000/svg">
<g style="mix-blend-mode:hard-light" filter="url(#filter0_d_1_4)">
<path d="M0.105471 -0.0078187C8.50391 0.773431 15.9258 1.35937 22.3711 1.74999C28.8164 2.14062 34.1875 2.53124 38.4844 2.92187C43.5625 3.31249 47.8594 3.60546 51.375 3.80077C54.8906 3.99609 59.1875 4.09374 64.2656 4.09374C68.5625 4.28906 73.9336 4.38671 80.3789 4.38671C86.8242 4.38671 94.4414 4.38671 103.23 4.38671C97.5664 7.12109 93.1719 9.66015 90.0469 12.0039C87.1172 14.3476 84.8711 16.3984 83.3086 18.1562C81.3555 20.3047 80.1836 22.2578 79.793 24.0156C79.5977 25.5781 79.9883 28.2148 80.9648 31.9258C81.9414 35.6367 83.3086 39.8359 85.0664 44.5234C86.8242 49.0156 88.9727 53.8008 91.5117 58.8789C94.0508 63.957 96.6875 68.5469 99.4219 72.6484C102.352 76.5547 105.281 79.7773 108.211 82.3164C111.141 84.8555 113.973 86.0273 116.707 85.832C119.441 85.6367 122.762 84.3672 126.668 82.0234C130.574 79.4844 134.578 76.3594 138.68 72.6484C142.977 68.9375 147.176 64.9336 151.277 60.6367C155.379 56.3398 158.992 52.1406 162.117 48.0391C165.437 43.9375 168.074 40.2266 170.027 36.9062C172.176 33.3906 173.25 30.8516 173.25 29.2891C173.055 27.3359 172.273 25.0898 170.906 22.5508C169.734 20.4023 167.781 17.8633 165.047 14.9336C162.312 11.8086 158.504 8.29296 153.621 4.38671C169.637 4.97265 181.355 5.26562 188.777 5.26562H199.617H211.922C216.414 5.26562 222.371 5.26562 229.793 5.26562C237.215 5.07031 246.492 4.77734 257.625 4.38671C250.008 9.46484 243.367 14.0547 237.703 18.1562C232.234 22.0625 227.547 25.3828 223.641 28.1172C219.148 31.4375 215.437 34.3672 212.508 36.9062C209.187 39.6406 204.598 43.9375 198.738 49.7969C193.66 54.875 186.922 61.7109 178.523 70.3047C170.125 78.7031 159.578 89.6406 146.883 103.117C145.125 117.375 143.953 128.898 143.367 137.687C142.977 146.477 142.781 153.41 142.781 158.488C142.781 164.348 143.172 168.742 143.953 171.672C144.93 174.016 146.59 176.75 148.934 179.875C150.887 182.609 153.621 185.832 157.137 189.543C160.848 193.254 165.73 197.355 171.785 201.848C165.34 200.285 159.285 199.113 153.621 198.332C148.152 197.551 143.27 196.965 138.973 196.574C133.895 195.988 129.305 195.695 125.203 195.695C120.906 195.695 115.828 195.891 109.969 196.281C104.891 196.672 98.8359 197.16 91.8047 197.746C84.7734 198.332 76.5703 199.211 67.1953 200.383C72.0781 197.062 76.082 193.742 79.207 190.422C82.332 187.102 84.7734 184.074 86.5312 181.34C88.6797 178.215 90.2422 175.285 91.2187 172.551C92 169.426 92.5859 164.934 92.9766 159.074C93.3672 153.996 93.3672 147.258 92.9766 138.859C92.7812 130.461 92.1953 119.816 91.2187 106.926C79.5 88.1758 69.9297 73.4297 62.5078 62.6875C55.0859 51.75 49.3242 43.4492 45.2227 37.7851C40.3398 31.3398 36.8242 27.043 34.6758 24.8945C32.7227 23.332 30.0859 21.3789 26.7656 19.0351C24.0313 16.8867 20.5156 14.3476 16.2188 11.418C11.7266 8.29296 6.35547 4.48437 0.105471 -0.0078187Z" fill="white"/>
</g>
<defs>
<filter id="filter0_d_1_4" x="0.105469" y="-0.00781822" width="286.52" height="209.855" filterUnits="userSpaceOnUse" color-interpolation-filters="sRGB">
<feFlood flood-opacity="0" result="BackgroundImageFix"/>
<feColorMatrix in="SourceAlpha" type="matrix" values="0 0 0 0 0 0 0 0 0 0 0 0 0 0 0 0 0 0 127 0" result="hardAlpha"/>
<feOffset dx="25" dy="4"/>
<feGaussianBlur stdDeviation="2"/>
<feComposite in2="hardAlpha" operator="out"/>
<feColorMatrix type="matrix" values="0 0 0 0 0 0 0 0 0 0 0 0 0 0 0 0 0 0 1 0"/>
<feBlend mode="normal" in2="BackgroundImageFix" result="effect1_dropShadow_1_4"/>
<feBlend mode="normal" in="SourceGraphic" in2="effect1_dropShadow_1_4" result="shape"/>
</filter>
</defs>
</svg>
